<svg width="689" height="263" viewBox="0 0 689 263" version="1.1" xmlns="http://www.w3.org/2000/svg" xmlns:xlink="http://www.w3.org/1999/xlink">
<title>Boxes</title>
<desc>Created using Figma</desc>
<g id="Canvas" transform="translate(-2229 -368)">
<g id="Boxes">
<g id="Scheme 4 - Gradient">
<g id="Cards">
<g id="Left Card">
<g id="Rectangle" filter="url(#filter0_d)">
<use xlink:href="#path0_fill" transform="translate(2235 396.168)" fill="#FFFFFF"/>
<mask id="mask0_outline_ins">
<use xlink:href="#path0_fill" fill="white" transform="translate(2235 396.168)"/>
</mask>
<g mask="url(#mask0_outline_ins)">
<use xlink:href="#path1_stroke_2x" transform="translate(2235 396.168)" fill="#000000" fill-opacity="0.34"/>
</g>
</g>
<g id="Rectangle 2.3">
<use xlink:href="#path2_fill" transform="translate(2235 396.168)" fill="url(#paint2_linear)"/>
</g>
</g>
<g id="Right Card">
<g id="Rectangle" filter="url(#filter1_d)">
<use xlink:href="#path0_fill" transform="translate(2722.05 396.168)" fill="#FFFFFF"/>
<mask id="mask1_outline_ins">
<use xlink:href="#path0_fill" fill="white" transform="translate(2722.05 396.168)"/>
</mask>
<g mask="url(#mask1_outline_ins)">
<use xlink:href="#path1_stroke_2x" transform="translate(2722.05 396.168)" fill="#000000" fill-opacity="0.34"/>
</g>
</g>
<g id="Rectangle 2.4">
<use xlink:href="#path2_fill" transform="translate(2722.05 396.168)" fill="url(#paint5_linear)"/>
</g>
</g>
<g id="Middle Card">
<g id="Rectangle" filter="url(#filter2_d)">
<use xlink:href="#path3_fill" transform="translate(2478.52 373.5)" fill="#FFFFFF"/>
<mask id="mask2_outline_ins">
<use xlink:href="#path3_fill" fill="white" transform="translate(2478.52 373.5)"/>
</mask>
<g mask="url(#mask2_outline_ins)">
<use xlink:href="#path4_stroke_2x" transform="translate(2478.52 373.5)" fill="#000000" fill-opacity="0.34"/>
</g>
</g>
<g id="Top of Card">
<g id="Rectangle 2.5">
<use xlink:href="#path5_fill" transform="translate(2478.52 373.5)" fill="url(#paint8_linear)"/>
</g>
<g id="Phone">
<g id="Rectangle">
<use xlink:href="#path6_fill" transform="matrix(0.971132 -0.238543 0.238543 0.971132 2494.71 421.056)" fill="#4F4F4F"/>
</g>
<g id="Rectangle 2">
<use xlink:href="#path7_fill" transform="matrix(0.971132 -0.238543 0.238543 0.971132 2496.3 422.667)" fill="#FFFFFF"/>
</g>
<g id="Rectangle 3">
<use xlink:href="#path8_fill" transform="matrix(0.971132 -0.238543 0.238543 0.971132 2496.3 422.667)" fill="#C9BC1F"/>
</g>
<g id="Rectangle 4">
<use xlink:href="#path9_fill" transform="matrix(0.971132 -0.238543 0.238543 0.971132 2496.77 424.554)" fill="#FFEE58"/>
</g>
<g id="Ellipse">
<use xlink:href="#path10_fill" transform="matrix(0.971132 -0.238543 0.238543 0.971132 2507.32 450.64)" fill="#C4C4C4"/>
</g>
<g id="Ellipse">
<use xlink:href="#path10_fill" transform="matrix(0.971132 -0.238543 0.238543 0.971132 2509.33 458.817)" fill="#C4C4C4"/>
</g>
<g id="Ellipse">
<use xlink:href="#path10_fill" transform="matrix(0.971132 -0.238543 0.238543 0.971132 2511.33 466.993)" fill="#C4C4C4"/>
</g>
<g id="Rectangle 5">
<use xlink:href="#path11_fill" transform="matrix(0.971132 -0.238543 0.238543 0.971132 2514.39 449.57)" fill="#C4C4C4"/>
</g>
<g id="Rectangle 5.1">
<use xlink:href="#path11_fill" transform="matrix(0.971132 -0.238543 0.238543 0.971132 2516.4 457.746)" fill="#C4C4C4"/>
</g>
<g id="Rectangle 5.2">
<use xlink:href="#path11_fill" transform="matrix(0.971132 -0.238543 0.238543 0.971132 2518.41 465.923)" fill="#C4C4C4"/>
</g>
<g id="User Icon">
<g id="Ellipse">
<use xlink:href="#path12_fill" transform="matrix(0.971132 -0.238543 0.238543 0.971132 2504.75 426.596)" fill="#FFFF8B"/>
</g>
<g id="Ellipse 2">
<use xlink:href="#path13_fill" transform="matrix(0.971132 -0.238543 0.238543 0.971132 2510.32 428.428)" fill="#FFFF8B"/>
<mask id="mask3_outline_ins">
<use xlink:href="#path13_fill" fill="white" transform="matrix(0.971132 -0.238543 0.238543 0.971132 2510.32 428.428)"/>
</mask>
<g mask="url(#mask3_outline_ins)">
<use xlink:href="#path14_stroke_2x" transform="matrix(0.971132 -0.238543 0.238543 0.971132 2510.32 428.428)" fill="#BDBDBD"/>
</g>
</g>
<g id="Vector">
<use xlink:href="#path15_stroke" transform="matrix(0.971132 -0.238543 0.238543 0.971132 2511.05 434.011)" fill="#BDBDBD"/>
</g>
</g>
</g>
</g>
</g>
</g>
</g>
<g id="Software Engineer">
<use xlink:href="#path16_fill" transform="translate(2523 533)"/>
</g>
<g id="Meetup Co-organizer">
<use xlink:href="#path17_fill" transform="translate(2258 519)"/>
</g>
<g id="Freelancer">
<use xlink:href="#path18_fill" transform="translate(2760 533)"/>
</g>
</g>
</g>
<defs>
<filter id="filter0_d" filterUnits="userSpaceOnUse" x="2229" y="391" width="202" height="217" color-interpolation-filters="sRGB">
<feFlood flood-opacity="0" result="BackgroundImageFix"/>
<feColorMatrix in="SourceAlpha" type="matrix" values="0 0 0 0 0 0 0 0 0 0 0 0 0 0 0 0 0 0 255 0"/>
<feOffset dx="0" dy="1"/>
<feGaussianBlur stdDeviation="3"/>
<feColorMatrix type="matrix" values="0 0 0 0 0 0 0 0 0 0 0 0 0 0 0 0 0 0 0.25 0"/>
<feBlend mode="normal" in2="BackgroundImageFix" result="effect1_dropShadow"/>
<feBlend mode="normal" in="SourceGraphic" in2="effect1_dropShadow" result="shape"/>
</filter>
<filter id="filter1_d" filterUnits="userSpaceOnUse" x="2716" y="391" width="202" height="217" color-interpolation-filters="sRGB">
<feFlood flood-opacity="0" result="BackgroundImageFix"/>
<feColorMatrix in="SourceAlpha" type="matrix" values="0 0 0 0 0 0 0 0 0 0 0 0 0 0 0 0 0 0 255 0"/>
<feOffset dx="0" dy="1"/>
<feGaussianBlur stdDeviation="3"/>
<feColorMatrix type="matrix" values="0 0 0 0 0 0 0 0 0 0 0 0 0 0 0 0 0 0 0.25 0"/>
<feBlend mode="normal" in2="BackgroundImageFix" result="effect1_dropShadow"/>
<feBlend mode="normal" in="SourceGraphic" in2="effect1_dropShadow" result="shape"/>
</filter>
<filter id="filter2_d" filterUnits="userSpaceOnUse" x="2472" y="368" width="202" height="263" color-interpolation-filters="sRGB">
<feFlood flood-opacity="0" result="BackgroundImageFix"/>
<feColorMatrix in="SourceAlpha" type="matrix" values="0 0 0 0 0 0 0 0 0 0 0 0 0 0 0 0 0 0 255 0"/>
<feOffset dx="0" dy="1"/>
<feGaussianBlur stdDeviation="3"/>
<feColorMatrix type="matrix" values="0 0 0 0 0 0 0 0 0 0 0 0 0 0 0 0 0 0 0.25 0"/>
<feBlend mode="normal" in2="BackgroundImageFix" result="effect1_dropShadow"/>
<feBlend mode="normal" in="SourceGraphic" in2="effect1_dropShadow" result="shape"/>
</filter>
<linearGradient id="paint2_linear" x1="0" y1="0" x2="1" y2="0" gradientUnits="userSpaceOnUse" gradientTransform="matrix(189.119 102.332 -189.119 349.511 94.5596 -174.756)">
<stop offset="0" stop-color="#4DD0E1"/>
<stop offset="1" stop-color="#00BCD4"/>
</linearGradient>
<linearGradient id="paint5_linear" x1="0" y1="0" x2="1" y2="0" gradientUnits="userSpaceOnUse" gradientTransform="matrix(189.119 102.332 -189.119 349.511 94.5596 -174.756)">
<stop offset="0" stop-color="#FF8A65"/>
<stop offset="1" stop-color="#FF5722"/>
</linearGradient>
<linearGradient id="paint8_linear" x1="0" y1="0" x2="1" y2="0" gradientUnits="userSpaceOnUse" gradientTransform="matrix(189.119 125 -189.119 286.128 94.5596 -143.064)">
<stop offset="0" stop-color="#81C784"/>
<stop offset="1" stop-color="#4CAF50"/>
</linearGradient>
<path id="path0_fill" d="M 0 3C 0 1.34315 1.34315 0 3 0L 186.119 0C 187.776 0 189.119 1.34315 189.119 3L 189.119 201.663C 189.119 203.32 187.776 204.663 186.119 204.663L 3 204.663C 1.34315 204.663 0 203.32 0 201.663L 0 3Z"/>
<path id="path1_stroke_2x" d="M 3 1L 186.119 1L 186.119 -1L 3 -1L 3 1ZM 188.119 3L 188.119 201.663L 190.119 201.663L 190.119 3L 188.119 3ZM 186.119 203.663L 3 203.663L 3 205.663L 186.119 205.663L 186.119 203.663ZM 1 201.663L 1 3L -1 3L -1 201.663L 1 201.663ZM 3 203.663C 1.89543 203.663 1 202.768 1 201.663L -1 201.663C -1 203.872 0.790862 205.663 3 205.663L 3 203.663ZM 188.119 201.663C 188.119 202.768 187.224 203.663 186.119 203.663L 186.119 205.663C 188.328 205.663 190.119 203.872 190.119 201.663L 188.119 201.663ZM 186.119 1C 187.224 1 188.119 1.89543 188.119 3L 190.119 3C 190.119 0.790861 188.328 -1 186.119 -1L 186.119 1ZM 3 -1C 0.79086 -1 -1 0.790864 -1 3L 1 3C 1 1.89543 1.89543 1 3 1L 3 -1Z"/>
<path id="path2_fill" d="M 0 0L 189.119 0L 189.119 102.332L 0 102.332L 0 0Z"/>
<path id="path3_fill" d="M 0 3C 0 1.34315 1.34315 0 3 0L 186.119 0C 187.776 0 189.119 1.34315 189.119 3L 189.119 247C 189.119 248.657 187.776 250 186.119 250L 3 250C 1.34315 250 0 248.657 0 247L 0 3Z"/>
<path id="path4_stroke_2x" d="M 3 1L 186.119 1L 186.119 -1L 3 -1L 3 1ZM 188.119 3L 188.119 247L 190.119 247L 190.119 3L 188.119 3ZM 186.119 249L 3 249L 3 251L 186.119 251L 186.119 249ZM 1 247L 1 3L -1 3L -1 247L 1 247ZM 3 249C 1.89543 249 1 248.105 1 247L -1 247C -1 249.209 0.790862 251 3 251L 3 249ZM 188.119 247C 188.119 248.105 187.224 249 186.119 249L 186.119 251C 188.328 251 190.119 249.209 190.119 247L 188.119 247ZM 186.119 1C 187.224 1 188.119 1.89543 188.119 3L 190.119 3C 190.119 0.790861 188.328 -1 186.119 -1L 186.119 1ZM 3 -1C 0.790861 -1 -1 0.790861 -1 3L 1 3C 1 1.89543 1.89543 1 3 1L 3 -1Z"/>
<path id="path5_fill" d="M 0 0L 189.119 0L 189.119 125L 0 125L 0 0Z"/>
<path id="path6_fill" d="M 0 4C 0 1.79086 1.79086 0 4 0L 28.3834 0C 30.5926 0 32.3834 1.79086 32.3834 4L 32.3834 58.1762C 32.3834 60.3853 30.5926 62.1762 28.3834 62.1762L 4 62.1762C 1.79086 62.1762 0 60.3853 0 58.1762L 0 4Z"/>
<path id="path7_fill" d="M 0 0L 30.0703 0L 30.0703 58.2902L 0 58.2902L 0 0Z"/>
<path id="path8_fill" d="M 0 0L 30.0703 0L 30.0703 1.94301L 0 1.94301L 0 0Z"/>
<path id="path9_fill" d="M 0 0L 30.0703 0L 30.0703 22.6684L 0 22.6684L 0 0Z"/>
<path id="path10_fill" d="M 3.88601 1.94301C 3.88601 3.0161 3.0161 3.88601 1.94301 3.88601C 0.869913 3.88601 0 3.0161 0 1.94301C 0 0.869913 0.869913 0 1.94301 0C 3.0161 0 3.88601 0.869913 3.88601 1.94301Z"/>
<path id="path11_fill" d="M 0 0L 14.2487 0L 14.2487 2.59067L 0 2.59067L 0 0Z"/>
<path id="path12_fill" d="M 15.544 7.77202C 15.544 12.0644 12.0644 15.544 7.77202 15.544C 3.47965 15.544 0 12.0644 0 7.77202C 0 3.47965 3.47965 0 7.77202 0C 12.0644 0 15.544 3.47965 15.544 7.77202Z"/>
<path id="path13_fill" d="M 5.59586 2.79793C 5.59586 4.34318 4.34318 5.59586 2.79793 5.59586C 1.25267 5.59586 0 4.34318 0 2.79793C 0 1.25267 1.25267 0 2.79793 0C 4.34318 0 5.59586 1.25267 5.59586 2.79793Z"/>
<path id="path14_stroke_2x" d="M 3.59586 2.79793C 3.59586 3.23861 3.23861 3.59586 2.79793 3.59586L 2.79793 7.59586C 5.44775 7.59586 7.59586 5.44775 7.59586 2.79793L 3.59586 2.79793ZM 2.79793 3.59586C 2.35724 3.59586 2 3.23861 2 2.79793L -2 2.79793C -2 5.44775 0.148105 7.59586 2.79793 7.59586L 2.79793 3.59586ZM 2 2.79793C 2 2.35724 2.35724 2 2.79793 2L 2.79793 -2C 0.148105 -2 -2 0.148105 -2 2.79793L 2 2.79793ZM 2.79793 2C 3.23861 2 3.59586 2.35724 3.59586 2.79793L 7.59586 2.79793C 7.59586 0.148105 5.44775 -2 2.79793 -2L 2.79793 2Z"/>
<path id="path15_stroke" d="M 7.52823 3.08559C 7.46549 0.383934 5.28941 -0.976634 3.28146 -0.999688C 2.27263 -1.01127 1.22564 -0.699032 0.407315 -0.00687646C -0.430203 0.701513 -0.965138 1.75648 -0.999661 3.08279L 0.999661 3.13483C 1.02004 2.35187 1.3168 1.84333 1.6989 1.52015C 2.10019 1.18073 2.66074 0.993317 3.2585 1.00018C 4.46371 1.01402 5.49697 1.76271 5.52877 3.13202L 7.52823 3.08559Z"/>
<path id="path16_fill" d="M 10.3711 17.5234C 10.3711 16.8594 10.1367 16.3516 9.66797 16C 9.19922 15.6406 8.35547 15.2656 7.13672 14.875C 5.91797 14.4766 4.95312 14.0859 4.24219 13.7031C 2.30469 12.6562 1.33594 11.2461 1.33594 9.47266C 1.33594 8.55078 1.59375 7.73047 2.10938 7.01172C 2.63281 6.28516 3.37891 5.71875 4.34766 5.3125C 5.32422 4.90625 6.41797 4.70312 7.62891 4.70312C 8.84766 4.70312 9.93359 4.92578 10.8867 5.37109C 11.8398 5.80859 12.5781 6.42969 13.1016 7.23438C 13.6328 8.03906 13.8984 8.95312 13.8984 9.97656L 10.3828 9.97656C 10.3828 9.19531 10.1367 8.58984 9.64453 8.16016C 9.15234 7.72266 8.46094 7.50391 7.57031 7.50391C 6.71094 7.50391 6.04297 7.6875 5.56641 8.05469C 5.08984 8.41406 4.85156 8.89062 4.85156 9.48438C 4.85156 10.0391 5.12891 10.5039 5.68359 10.8789C 6.24609 11.2539 7.07031 11.6055 8.15625 11.9336C 10.1562 12.5352 11.6133 13.2812 12.5273 14.1719C 13.4414 15.0625 13.8984 16.1719 13.8984 17.5C 13.8984 18.9766 13.3398 20.1367 12.2227 20.9805C 11.1055 21.8164 9.60156 22.2344 7.71094 22.2344C 6.39844 22.2344 5.20312 21.9961 4.125 21.5195C 3.04688 21.0352 2.22266 20.375 1.65234 19.5391C 1.08984 18.7031 0.808594 17.7344 0.808594 16.6328L 4.33594 16.6328C 4.33594 18.5156 5.46094 19.457 7.71094 19.457C 8.54688 19.457 9.19922 19.2891 9.66797 18.9531C 10.1367 18.6094 10.3711 18.1328 10.3711 17.5234ZM 15.5391 15.543C 15.5391 14.2852 15.7812 13.1641 16.2656 12.1797C 16.75 11.1953 17.4453 10.4336 18.3516 9.89453C 19.2656 9.35547 20.3242 9.08594 21.5273 9.08594C 23.2383 9.08594 24.6328 9.60938 25.7109 10.6562C 26.7969 11.7031 27.4023 13.125 27.5273 14.9219L 27.5508 15.7891C 27.5508 17.7344 27.0078 19.2969 25.9219 20.4766C 24.8359 21.6484 23.3789 22.2344 21.5508 22.2344C 19.7227 22.2344 18.2617 21.6484 17.168 20.4766C 16.082 19.3047 15.5391 17.7109 15.5391 15.6953L 15.5391 15.543ZM 18.9258 15.7891C 18.9258 16.9922 19.1523 17.9141 19.6055 18.5547C 20.0586 19.1875 20.707 19.5039 21.5508 19.5039C 22.3711 19.5039 23.0117 19.1914 23.4727 18.5664C 23.9336 17.9336 24.1641 16.9258 24.1641 15.543C 24.1641 14.3633 23.9336 13.4492 23.4727 12.8008C 23.0117 12.1523 22.3633 11.8281 21.5273 11.8281C 20.6992 11.8281 20.0586 12.1523 19.6055 12.8008C 19.1523 13.4414 18.9258 14.4375 18.9258 15.7891ZM 30.5625 22L 30.5625 11.8047L 28.6758 11.8047L 28.6758 9.32031L 30.5625 9.32031L 30.5625 8.24219C 30.5625 6.82031 30.9688 5.71875 31.7812 4.9375C 32.6016 4.14844 33.7461 3.75391 35.2148 3.75391C 35.6836 3.75391 36.2578 3.83203 36.9375 3.98828L 36.9023 6.61328C 36.6211 6.54297 36.2773 6.50781 35.8711 6.50781C 34.5977 6.50781 33.9609 7.10547 33.9609 8.30078L 33.9609 9.32031L 36.4805 9.32031L 36.4805 11.8047L 33.9609 11.8047L 33.9609 22L 30.5625 22ZM 42.293 6.20312L 42.293 9.32031L 44.4609 9.32031L 44.4609 11.8047L 42.293 11.8047L 42.293 18.1328C 42.293 18.6016 42.3828 18.9375 42.5625 19.1406C 42.7422 19.3438 43.0859 19.4453 43.5938 19.4453C 43.9688 19.4453 44.3008 19.418 44.5898 19.3633L 44.5898 21.9297C 43.9258 22.1328 43.2422 22.2344 42.5391 22.2344C 40.1641 22.2344 38.9531 21.0352 38.9062 18.6367L 38.9062 11.8047L 37.0547 11.8047L 37.0547 9.32031L 38.9062 9.32031L 38.9062 6.20312L 42.293 6.20312ZM 57.375 17.3945L 59.0391 9.32031L 62.3086 9.32031L 59.0742 22L 56.2383 22L 53.8359 14.0195L 51.4336 22L 48.6094 22L 45.375 9.32031L 48.6445 9.32031L 50.2969 17.3828L 52.6172 9.32031L 55.0664 9.32031L 57.375 17.3945ZM 71.3438 22C 71.1875 21.6953 71.0742 21.3164 71.0039 20.8633C 70.1836 21.7773 69.1172 22.2344 67.8047 22.2344C 66.5625 22.2344 65.5312 21.875 64.7109 21.1562C 63.8984 20.4375 63.4922 19.5312 63.4922 18.4375C 63.4922 17.0938 63.9883 16.0625 64.9805 15.3438C 65.9805 14.625 67.4219 14.2617 69.3047 14.2539L 70.8633 14.2539L 70.8633 13.5273C 70.8633 12.9414 70.7109 12.4727 70.4062 12.1211C 70.1094 11.7695 69.6367 11.5938 68.9883 11.5938C 68.418 11.5938 67.9688 11.7305 67.6406 12.0039C 67.3203 12.2773 67.1602 12.6523 67.1602 13.1289L 63.7734 13.1289C 63.7734 12.3945 64 11.7148 64.4531 11.0898C 64.9062 10.4648 65.5469 9.97656 66.375 9.625C 67.2031 9.26562 68.1328 9.08594 69.1641 9.08594C 70.7266 9.08594 71.9648 9.48047 72.8789 10.2695C 73.8008 11.0508 74.2617 12.1523 74.2617 13.5742L 74.2617 19.0703C 74.2695 20.2734 74.4375 21.1836 74.7656 21.8008L 74.7656 22L 71.3438 22ZM 68.543 19.6445C 69.043 19.6445 69.5039 19.5352 69.9258 19.3164C 70.3477 19.0898 70.6602 18.7891 70.8633 18.4141L 70.8633 16.2344L 69.5977 16.2344C 67.9023 16.2344 67 16.8203 66.8906 17.9922L 66.8789 18.1914C 66.8789 18.6133 67.0273 18.9609 67.3242 19.2344C 67.6211 19.5078 68.0273 19.6445 68.543 19.6445ZM 83.9883 12.4961C 83.5273 12.4336 83.1211 12.4023 82.7695 12.4023C 81.4883 12.4023 80.6484 12.8359 80.25 13.7031L 80.25 22L 76.8633 22L 76.8633 9.32031L 80.0625 9.32031L 80.1562 10.832C 80.8359 9.66797 81.7773 9.08594 82.9805 9.08594C 83.3555 9.08594 83.707 9.13672 84.0352 9.23828L 83.9883 12.4961ZM 91.2305 22.2344C 89.3711 22.2344 87.8555 21.6641 86.6836 20.5234C 85.5195 19.3828 84.9375 17.8633 84.9375 15.9648L 84.9375 15.6367C 84.9375 14.3633 85.1836 13.2266 85.6758 12.2266C 86.168 11.2188 86.8633 10.4453 87.7617 9.90625C 88.668 9.35938 89.6992 9.08594 90.8555 9.08594C 92.5898 9.08594 93.9531 9.63281 94.9453 10.7266C 95.9453 11.8203 96.4453 13.3711 96.4453 15.3789L 96.4453 16.7617L 88.3711 16.7617C 88.4805 17.5898 88.8086 18.2539 89.3555 18.7539C 89.9102 19.2539 90.6094 19.5039 91.4531 19.5039C 92.7578 19.5039 93.7773 19.0312 94.5117 18.0859L 96.1758 19.9492C 95.668 20.668 94.9805 21.2305 94.1133 21.6367C 93.2461 22.0352 92.2852 22.2344 91.2305 22.2344ZM 90.8438 11.8281C 90.1719 11.8281 89.625 12.0547 89.2031 12.5078C 88.7891 12.9609 88.5234 13.6094 88.4062 14.4531L 93.1172 14.4531L 93.1172 14.1836C 93.1016 13.4336 92.8984 12.8555 92.5078 12.4492C 92.1172 12.0352 91.5625 11.8281 90.8438 11.8281ZM 11.7891 42.6055L 5.03906 42.6055L 5.03906 47.1758L 12.9609 47.1758L 12.9609 50L 1.52344 50L 1.52344 32.9375L 12.9375 32.9375L 12.9375 35.7852L 5.03906 35.7852L 5.03906 39.8516L 11.7891 39.8516L 11.7891 42.6055ZM 17.918 37.3203L 18.0234 38.7852C 18.9297 37.6523 20.1445 37.0859 21.668 37.0859C 23.0117 37.0859 24.0117 37.4805 24.668 38.2695C 25.3242 39.0586 25.6602 40.2383 25.6758 41.8086L 25.6758 50L 22.2891 50L 22.2891 41.8906C 22.2891 41.1719 22.1328 40.6523 21.8203 40.332C 21.5078 40.0039 20.9883 39.8398 20.2617 39.8398C 19.3086 39.8398 18.5938 40.2461 18.1172 41.0586L 18.1172 50L 14.7305 50L 14.7305 37.3203L 17.918 37.3203ZM 27.7617 43.5664C 27.7617 41.6211 28.2227 40.0547 29.1445 38.8672C 30.0742 37.6797 31.3242 37.0859 32.8945 37.0859C 34.2852 37.0859 35.3672 37.5625 36.1406 38.5156L 36.2812 37.3203L 39.3516 37.3203L 39.3516 49.5781C 39.3516 50.6875 39.0977 51.6523 38.5898 52.4727C 38.0898 53.293 37.3828 53.918 36.4688 54.3477C 35.5547 54.7773 34.4844 54.9922 33.2578 54.9922C 32.3281 54.9922 31.4219 54.8047 30.5391 54.4297C 29.6562 54.0625 28.9883 53.5859 28.5352 53L 30.0352 50.9375C 30.8789 51.8828 31.9023 52.3555 33.1055 52.3555C 34.0039 52.3555 34.7031 52.1133 35.2031 51.6289C 35.7031 51.1523 35.9531 50.4727 35.9531 49.5898L 35.9531 48.9102C 35.1719 49.793 34.1445 50.2344 32.8711 50.2344C 31.3477 50.2344 30.1133 49.6406 29.168 48.4531C 28.2305 47.2578 27.7617 45.6758 27.7617 43.707L 27.7617 43.5664ZM 31.1484 43.8125C 31.1484 44.9609 31.3789 45.8633 31.8398 46.5195C 32.3008 47.168 32.9336 47.4922 33.7383 47.4922C 34.7695 47.4922 35.5078 47.1055 35.9531 46.332L 35.9531 41C 35.5 40.2266 34.7695 39.8398 33.7617 39.8398C 32.9492 39.8398 32.3086 40.1719 31.8398 40.8359C 31.3789 41.5 31.1484 42.4922 31.1484 43.8125ZM 45.5391 50L 42.1406 50L 42.1406 37.3203L 45.5391 37.3203L 45.5391 50ZM 41.9414 34.0391C 41.9414 33.5312 42.1094 33.1133 42.4453 32.7852C 42.7891 32.457 43.2539 32.293 43.8398 32.293C 44.418 32.293 44.8789 32.457 45.2227 32.7852C 45.5664 33.1133 45.7383 33.5312 45.7383 34.0391C 45.7383 34.5547 45.5625 34.9766 45.2109 35.3047C 44.8672 35.6328 44.4102 35.7969 43.8398 35.7969C 43.2695 35.7969 42.8086 35.6328 42.457 35.3047C 42.1133 34.9766 41.9414 34.5547 41.9414 34.0391ZM 51.457 37.3203L 51.5625 38.7852C 52.4688 37.6523 53.6836 37.0859 55.207 37.0859C 56.5508 37.0859 57.5508 37.4805 58.207 38.2695C 58.8633 39.0586 59.1992 40.2383 59.2148 41.8086L 59.2148 50L 55.8281 50L 55.8281 41.8906C 55.8281 41.1719 55.6719 40.6523 55.3594 40.332C 55.0469 40.0039 54.5273 39.8398 53.8008 39.8398C 52.8477 39.8398 52.1328 40.2461 51.6562 41.0586L 51.6562 50L 48.2695 50L 48.2695 37.3203L 51.457 37.3203ZM 67.6289 50.2344C 65.7695 50.2344 64.2539 49.6641 63.082 48.5234C 61.918 47.3828 61.3359 45.8633 61.3359 43.9648L 61.3359 43.6367C 61.3359 42.3633 61.582 41.2266 62.0742 40.2266C 62.5664 39.2188 63.2617 38.4453 64.1602 37.9062C 65.0664 37.3594 66.0977 37.0859 67.2539 37.0859C 68.9883 37.0859 70.3516 37.6328 71.3438 38.7266C 72.3438 39.8203 72.8438 41.3711 72.8438 43.3789L 72.8438 44.7617L 64.7695 44.7617C 64.8789 45.5898 65.207 46.2539 65.7539 46.7539C 66.3086 47.2539 67.0078 47.5039 67.8516 47.5039C 69.1562 47.5039 70.1758 47.0312 70.9102 46.0859L 72.5742 47.9492C 72.0664 48.668 71.3789 49.2305 70.5117 49.6367C 69.6445 50.0352 68.6836 50.2344 67.6289 50.2344ZM 67.2422 39.8281C 66.5703 39.8281 66.0234 40.0547 65.6016 40.5078C 65.1875 40.9609 64.9219 41.6094 64.8047 42.4531L 69.5156 42.4531L 69.5156 42.1836C 69.5 41.4336 69.2969 40.8555 68.9062 40.4492C 68.5156 40.0352 67.9609 39.8281 67.2422 39.8281ZM 80.6133 50.2344C 78.7539 50.2344 77.2383 49.6641 76.0664 48.5234C 74.9023 47.3828 74.3203 45.8633 74.3203 43.9648L 74.3203 43.6367C 74.3203 42.3633 74.5664 41.2266 75.0586 40.2266C 75.5508 39.2188 76.2461 38.4453 77.1445 37.9062C 78.0508 37.3594 79.082 37.0859 80.2383 37.0859C 81.9727 37.0859 83.3359 37.6328 84.3281 38.7266C 85.3281 39.8203 85.8281 41.3711 85.8281 43.3789L 85.8281 44.7617L 77.7539 44.7617C 77.8633 45.5898 78.1914 46.2539 78.7383 46.7539C 79.293 47.2539 79.9922 47.5039 80.8359 47.5039C 82.1406 47.5039 83.1602 47.0312 83.8945 46.0859L 85.5586 47.9492C 85.0508 48.668 84.3633 49.2305 83.4961 49.6367C 82.6289 50.0352 81.668 50.2344 80.6133 50.2344ZM 80.2266 39.8281C 79.5547 39.8281 79.0078 40.0547 78.5859 40.5078C 78.1719 40.9609 77.9062 41.6094 77.7891 42.4531L 82.5 42.4531L 82.5 42.1836C 82.4844 41.4336 82.2812 40.8555 81.8906 40.4492C 81.5 40.0352 80.9453 39.8281 80.2266 39.8281ZM 94.8867 40.4961C 94.4258 40.4336 94.0195 40.4023 93.668 40.4023C 92.3867 40.4023 91.5469 40.8359 91.1484 41.7031L 91.1484 50L 87.7617 50L 87.7617 37.3203L 90.9609 37.3203L 91.0547 38.832C 91.7344 37.668 92.6758 37.0859 93.8789 37.0859C 94.2539 37.0859 94.6055 37.1367 94.9336 37.2383L 94.8867 40.4961Z"/>
<path id="path17_fill" d="M 36.5898 4.9375L 40.9727 17.3125L 45.332 4.9375L 49.9492 4.9375L 49.9492 22L 46.4219 22L 46.4219 17.3359L 46.7734 9.28516L 42.168 22L 39.7539 22L 35.1602 9.29688L 35.5117 17.3359L 35.5117 22L 31.9961 22L 31.9961 4.9375L 36.5898 4.9375ZM 58.6328 22.2344C 56.7734 22.2344 55.2578 21.6641 54.0859 20.5234C 52.9219 19.3828 52.3398 17.8633 52.3398 15.9648L 52.3398 15.6367C 52.3398 14.3633 52.5859 13.2266 53.0781 12.2266C 53.5703 11.2188 54.2656 10.4453 55.1641 9.90625C 56.0703 9.35938 57.1016 9.08594 58.2578 9.08594C 59.9922 9.08594 61.3555 9.63281 62.3477 10.7266C 63.3477 11.8203 63.8477 13.3711 63.8477 15.3789L 63.8477 16.7617L 55.7734 16.7617C 55.8828 17.5898 56.2109 18.2539 56.7578 18.7539C 57.3125 19.2539 58.0117 19.5039 58.8555 19.5039C 60.1602 19.5039 61.1797 19.0312 61.9141 18.0859L 63.5781 19.9492C 63.0703 20.668 62.3828 21.2305 61.5156 21.6367C 60.6484 22.0352 59.6875 22.2344 58.6328 22.2344ZM 58.2461 11.8281C 57.5742 11.8281 57.0273 12.0547 56.6055 12.5078C 56.1914 12.9609 55.9258 13.6094 55.8086 14.4531L 60.5195 14.4531L 60.5195 14.1836C 60.5039 13.4336 60.3008 12.8555 59.9102 12.4492C 59.5195 12.0352 58.9648 11.8281 58.2461 11.8281ZM 71.6172 22.2344C 69.7578 22.2344 68.2422 21.6641 67.0703 20.5234C 65.9062 19.3828 65.3242 17.8633 65.3242 15.9648L 65.3242 15.6367C 65.3242 14.3633 65.5703 13.2266 66.0625 12.2266C 66.5547 11.2188 67.25 10.4453 68.1484 9.90625C 69.0547 9.35938 70.0859 9.08594 71.2422 9.08594C 72.9766 9.08594 74.3398 9.63281 75.332 10.7266C 76.332 11.8203 76.832 13.3711 76.832 15.3789L 76.832 16.7617L 68.7578 16.7617C 68.8672 17.5898 69.1953 18.2539 69.7422 18.7539C 70.2969 19.2539 70.9961 19.5039 71.8398 19.5039C 73.1445 19.5039 74.1641 19.0312 74.8984 18.0859L 76.5625 19.9492C 76.0547 20.668 75.3672 21.2305 74.5 21.6367C 73.6328 22.0352 72.6719 22.2344 71.6172 22.2344ZM 71.2305 11.8281C 70.5586 11.8281 70.0117 12.0547 69.5898 12.5078C 69.1758 12.9609 68.9102 13.6094 68.793 14.4531L 73.5039 14.4531L 73.5039 14.1836C 73.4883 13.4336 73.2852 12.8555 72.8945 12.4492C 72.5039 12.0352 71.9492 11.8281 71.2305 11.8281ZM 82.8203 6.20312L 82.8203 9.32031L 84.9883 9.32031L 84.9883 11.8047L 82.8203 11.8047L 82.8203 18.1328C 82.8203 18.6016 82.9102 18.9375 83.0898 19.1406C 83.2695 19.3438 83.6133 19.4453 84.1211 19.4453C 84.4961 19.4453 84.8281 19.418 85.1172 19.3633L 85.1172 21.9297C 84.4531 22.1328 83.7695 22.2344 83.0664 22.2344C 80.6914 22.2344 79.4805 21.0352 79.4336 18.6367L 79.4336 11.8047L 77.582 11.8047L 77.582 9.32031L 79.4336 9.32031L 79.4336 6.20312L 82.8203 6.20312ZM 94.4688 20.7109C 93.6328 21.7266 92.4766 22.2344 91 22.2344C 89.6406 22.2344 88.6016 21.8438 87.8828 21.0625C 87.1719 20.2812 86.8086 19.1367 86.793 17.6289L 86.793 9.32031L 90.1797 9.32031L 90.1797 17.5117C 90.1797 18.832 90.7812 19.4922 91.9844 19.4922C 93.1328 19.4922 93.9219 19.0938 94.3516 18.2969L 94.3516 9.32031L 97.75 9.32031L 97.75 22L 94.5625 22L 94.4688 20.7109ZM 111.719 15.7773C 111.719 17.7305 111.273 19.2969 110.383 20.4766C 109.5 21.6484 108.305 22.2344 106.797 22.2344C 105.516 22.2344 104.48 21.7891 103.691 20.8984L 103.691 26.875L 100.305 26.875L 100.305 9.32031L 103.445 9.32031L 103.562 10.5625C 104.383 9.57812 105.453 9.08594 106.773 9.08594C 108.336 9.08594 109.551 9.66406 110.418 10.8203C 111.285 11.9766 111.719 13.5703 111.719 15.6016L 111.719 15.7773ZM 108.332 15.5312C 108.332 14.3516 108.121 13.4414 107.699 12.8008C 107.285 12.1602 106.68 11.8398 105.883 11.8398C 104.82 11.8398 104.09 12.2461 103.691 13.0586L 103.691 18.25C 104.105 19.0859 104.844 19.5039 105.906 19.5039C 107.523 19.5039 108.332 18.1797 108.332 15.5312ZM 15.9883 44.3164C 15.8555 46.1523 15.1758 47.5977 13.9492 48.6523C 12.7305 49.707 11.1211 50.2344 9.12109 50.2344C 6.93359 50.2344 5.21094 49.5 3.95312 48.0312C 2.70312 46.5547 2.07812 44.5312 2.07812 41.9609L 2.07812 40.918C 2.07812 39.2773 2.36719 37.832 2.94531 36.582C 3.52344 35.332 4.34766 34.375 5.41797 33.7109C 6.49609 33.0391 7.74609 32.7031 9.16797 32.7031C 11.1367 32.7031 12.7227 33.2305 13.9258 34.2852C 15.1289 35.3398 15.8242 36.8203 16.0117 38.7266L 12.4961 38.7266C 12.4102 37.625 12.1016 36.8281 11.5703 36.3359C 11.0469 35.8359 10.2461 35.5859 9.16797 35.5859C 7.99609 35.5859 7.11719 36.0078 6.53125 36.8516C 5.95312 37.6875 5.65625 38.9883 5.64062 40.7539L 5.64062 42.043C 5.64062 43.8867 5.91797 45.2344 6.47266 46.0859C 7.03516 46.9375 7.91797 47.3633 9.12109 47.3633C 10.207 47.3633 11.0156 47.1172 11.5469 46.625C 12.0859 46.125 12.3945 45.3555 12.4727 44.3164L 15.9883 44.3164ZM 17.5469 43.543C 17.5469 42.2852 17.7891 41.1641 18.2734 40.1797C 18.7578 39.1953 19.4531 38.4336 20.3594 37.8945C 21.2734 37.3555 22.332 37.0859 23.5352 37.0859C 25.2461 37.0859 26.6406 37.6094 27.7188 38.6562C 28.8047 39.7031 29.4102 41.125 29.5352 42.9219L 29.5586 43.7891C 29.5586 45.7344 29.0156 47.2969 27.9297 48.4766C 26.8438 49.6484 25.3867 50.2344 23.5586 50.2344C 21.7305 50.2344 20.2695 49.6484 19.1758 48.4766C 18.0898 47.3047 17.5469 45.7109 17.5469 43.6953L 17.5469 43.543ZM 20.9336 43.7891C 20.9336 44.9922 21.1602 45.9141 21.6133 46.5547C 22.0664 47.1875 22.7148 47.5039 23.5586 47.5039C 24.3789 47.5039 25.0195 47.1914 25.4805 46.5664C 25.9414 45.9336 26.1719 44.9258 26.1719 43.543C 26.1719 42.3633 25.9414 41.4492 25.4805 40.8008C 25.0195 40.1523 24.3711 39.8281 23.5352 39.8281C 22.707 39.8281 22.0664 40.1523 21.6133 40.8008C 21.1602 41.4414 20.9336 42.4375 20.9336 43.7891ZM 38.2305 44.0586L 31.6328 44.0586L 31.6328 41.3281L 38.2305 41.3281L 38.2305 44.0586ZM 40.4219 43.543C 40.4219 42.2852 40.6641 41.1641 41.1484 40.1797C 41.6328 39.1953 42.3281 38.4336 43.2344 37.8945C 44.1484 37.3555 45.207 37.0859 46.4102 37.0859C 48.1211 37.0859 49.5156 37.6094 50.5938 38.6562C 51.6797 39.7031 52.2852 41.125 52.4102 42.9219L 52.4336 43.7891C 52.4336 45.7344 51.8906 47.2969 50.8047 48.4766C 49.7188 49.6484 48.2617 50.2344 46.4336 50.2344C 44.6055 50.2344 43.1445 49.6484 42.0508 48.4766C 40.9648 47.3047 40.4219 45.7109 40.4219 43.6953L 40.4219 43.543ZM 43.8086 43.7891C 43.8086 44.9922 44.0352 45.9141 44.4883 46.5547C 44.9414 47.1875 45.5898 47.5039 46.4336 47.5039C 47.2539 47.5039 47.8945 47.1914 48.3555 46.5664C 48.8164 45.9336 49.0469 44.9258 49.0469 43.543C 49.0469 42.3633 48.8164 41.4492 48.3555 40.8008C 47.8945 40.1523 47.2461 39.8281 46.4102 39.8281C 45.582 39.8281 44.9414 40.1523 44.4883 40.8008C 44.0352 41.4414 43.8086 42.4375 43.8086 43.7891ZM 61.6445 40.4961C 61.1836 40.4336 60.7773 40.4023 60.4258 40.4023C 59.1445 40.4023 58.3047 40.8359 57.9062 41.7031L 57.9062 50L 54.5195 50L 54.5195 37.3203L 57.7188 37.3203L 57.8125 38.832C 58.4922 37.668 59.4336 37.0859 60.6367 37.0859C 61.0117 37.0859 61.3633 37.1367 61.6914 37.2383L 61.6445 40.4961ZM 62.5586 43.5664C 62.5586 41.6211 63.0195 40.0547 63.9414 38.8672C 64.8711 37.6797 66.1211 37.0859 67.6914 37.0859C 69.082 37.0859 70.1641 37.5625 70.9375 38.5156L 71.0781 37.3203L 74.1484 37.3203L 74.1484 49.5781C 74.1484 50.6875 73.8945 51.6523 73.3867 52.4727C 72.8867 53.293 72.1797 53.918 71.2656 54.3477C 70.3516 54.7773 69.2812 54.9922 68.0547 54.9922C 67.125 54.9922 66.2188 54.8047 65.3359 54.4297C 64.4531 54.0625 63.7852 53.5859 63.332 53L 64.832 50.9375C 65.6758 51.8828 66.6992 52.3555 67.9023 52.3555C 68.8008 52.3555 69.5 52.1133 70 51.6289C 70.5 51.1523 70.75 50.4727 70.75 49.5898L 70.75 48.9102C 69.9688 49.793 68.9414 50.2344 67.668 50.2344C 66.1445 50.2344 64.9102 49.6406 63.9648 48.4531C 63.0273 47.2578 62.5586 45.6758 62.5586 43.707L 62.5586 43.5664ZM 65.9453 43.8125C 65.9453 44.9609 66.1758 45.8633 66.6367 46.5195C 67.0977 47.168 67.7305 47.4922 68.5352 47.4922C 69.5664 47.4922 70.3047 47.1055 70.75 46.332L 70.75 41C 70.2969 40.2266 69.5664 39.8398 68.5586 39.8398C 67.7461 39.8398 67.1055 40.1719 66.6367 40.8359C 66.1758 41.5 65.9453 42.4922 65.9453 43.8125ZM 84.1094 50C 83.9531 49.6953 83.8398 49.3164 83.7695 48.8633C 82.9492 49.7773 81.8828 50.2344 80.5703 50.2344C 79.3281 50.2344 78.2969 49.875 77.4766 49.1562C 76.6641 48.4375 76.2578 47.5312 76.2578 46.4375C 76.2578 45.0938 76.7539 44.0625 77.7461 43.3438C 78.7461 42.625 80.1875 42.2617 82.0703 42.2539L 83.6289 42.2539L 83.6289 41.5273C 83.6289 40.9414 83.4766 40.4727 83.1719 40.1211C 82.875 39.7695 82.4023 39.5938 81.7539 39.5938C 81.1836 39.5938 80.7344 39.7305 80.4062 40.0039C 80.0859 40.2773 79.9258 40.6523 79.9258 41.1289L 76.5391 41.1289C 76.5391 40.3945 76.7656 39.7148 77.2188 39.0898C 77.6719 38.4648 78.3125 37.9766 79.1406 37.625C 79.9688 37.2656 80.8984 37.0859 81.9297 37.0859C 83.4922 37.0859 84.7305 37.4805 85.6445 38.2695C 86.5664 39.0508 87.0273 40.1523 87.0273 41.5742L 87.0273 47.0703C 87.0352 48.2734 87.2031 49.1836 87.5312 49.8008L 87.5312 50L 84.1094 50ZM 81.3086 47.6445C 81.8086 47.6445 82.2695 47.5352 82.6914 47.3164C 83.1133 47.0898 83.4258 46.7891 83.6289 46.4141L 83.6289 44.2344L 82.3633 44.2344C 80.668 44.2344 79.7656 44.8203 79.6562 45.9922L 79.6445 46.1914C 79.6445 46.6133 79.793 46.9609 80.0898 47.2344C 80.3867 47.5078 80.793 47.6445 81.3086 47.6445ZM 92.7461 37.3203L 92.8516 38.7852C 93.7578 37.6523 94.9727 37.0859 96.4961 37.0859C 97.8398 37.0859 98.8398 37.4805 99.4961 38.2695C 100.152 39.0586 100.488 40.2383 100.504 41.8086L 100.504 50L 97.1172 50L 97.1172 41.8906C 97.1172 41.1719 96.9609 40.6523 96.6484 40.332C 96.3359 40.0039 95.8164 39.8398 95.0898 39.8398C 94.1367 39.8398 93.4219 40.2461 92.9453 41.0586L 92.9453 50L 89.5586 50L 89.5586 37.3203L 92.7461 37.3203ZM 106.656 50L 103.258 50L 103.258 37.3203L 106.656 37.3203L 106.656 50ZM 103.059 34.0391C 103.059 33.5312 103.227 33.1133 103.562 32.7852C 103.906 32.457 104.371 32.293 104.957 32.293C 105.535 32.293 105.996 32.457 106.34 32.7852C 106.684 33.1133 106.855 33.5312 106.855 34.0391C 106.855 34.5547 106.68 34.9766 106.328 35.3047C 105.984 35.6328 105.527 35.7969 104.957 35.7969C 104.387 35.7969 103.926 35.6328 103.574 35.3047C 103.23 34.9766 103.059 34.5547 103.059 34.0391ZM 113.348 47.2695L 119.547 47.2695L 119.547 50L 109.023 50L 109.023 47.9375L 114.988 40.0625L 109.199 40.0625L 109.199 37.3203L 119.359 37.3203L 119.359 39.3242L 113.348 47.2695ZM 127.316 50.2344C 125.457 50.2344 123.941 49.6641 122.77 48.5234C 121.605 47.3828 121.023 45.8633 121.023 43.9648L 121.023 43.6367C 121.023 42.3633 121.27 41.2266 121.762 40.2266C 122.254 39.2188 122.949 38.4453 123.848 37.9062C 124.754 37.3594 125.785 37.0859 126.941 37.0859C 128.676 37.0859 130.039 37.6328 131.031 38.7266C 132.031 39.8203 132.531 41.3711 132.531 43.3789L 132.531 44.7617L 124.457 44.7617C 124.566 45.5898 124.895 46.2539 125.441 46.7539C 125.996 47.2539 126.695 47.5039 127.539 47.5039C 128.844 47.5039 129.863 47.0312 130.598 46.0859L 132.262 47.9492C 131.754 48.668 131.066 49.2305 130.199 49.6367C 129.332 50.0352 128.371 50.2344 127.316 50.2344ZM 126.93 39.8281C 126.258 39.8281 125.711 40.0547 125.289 40.5078C 124.875 40.9609 124.609 41.6094 124.492 42.4531L 129.203 42.4531L 129.203 42.1836C 129.188 41.4336 128.984 40.8555 128.594 40.4492C 128.203 40.0352 127.648 39.8281 126.93 39.8281ZM 141.59 40.4961C 141.129 40.4336 140.723 40.4023 140.371 40.4023C 139.09 40.4023 138.25 40.8359 137.852 41.7031L 137.852 50L 134.465 50L 134.465 37.3203L 137.664 37.3203L 137.758 38.832C 138.438 37.668 139.379 37.0859 140.582 37.0859C 140.957 37.0859 141.309 37.1367 141.637 37.2383L 141.59 40.4961Z"/>
<path id="path18_fill" d="M 11.7891 15.0273L 5.03906 15.0273L 5.03906 22L 1.52344 22L 1.52344 4.9375L 12.6328 4.9375L 12.6328 7.78516L 5.03906 7.78516L 5.03906 12.1914L 11.7891 12.1914L 11.7891 15.0273ZM 21.2695 12.4961C 20.8086 12.4336 20.4023 12.4023 20.0508 12.4023C 18.7695 12.4023 17.9297 12.8359 17.5312 13.7031L 17.5312 22L 14.1445 22L 14.1445 9.32031L 17.3438 9.32031L 17.4375 10.832C 18.1172 9.66797 19.0586 9.08594 20.2617 9.08594C 20.6367 9.08594 20.9883 9.13672 21.3164 9.23828L 21.2695 12.4961ZM 28.5117 22.2344C 26.6523 22.2344 25.1367 21.6641 23.9648 20.5234C 22.8008 19.3828 22.2188 17.8633 22.2188 15.9648L 22.2188 15.6367C 22.2188 14.3633 22.4648 13.2266 22.957 12.2266C 23.4492 11.2188 24.1445 10.4453 25.043 9.90625C 25.9492 9.35938 26.9805 9.08594 28.1367 9.08594C 29.8711 9.08594 31.2344 9.63281 32.2266 10.7266C 33.2266 11.8203 33.7266 13.3711 33.7266 15.3789L 33.7266 16.7617L 25.6523 16.7617C 25.7617 17.5898 26.0898 18.2539 26.6367 18.7539C 27.1914 19.2539 27.8906 19.5039 28.7344 19.5039C 30.0391 19.5039 31.0586 19.0312 31.793 18.0859L 33.457 19.9492C 32.9492 20.668 32.2617 21.2305 31.3945 21.6367C 30.5273 22.0352 29.5664 22.2344 28.5117 22.2344ZM 28.125 11.8281C 27.4531 11.8281 26.9062 12.0547 26.4844 12.5078C 26.0703 12.9609 25.8047 13.6094 25.6875 14.4531L 30.3984 14.4531L 30.3984 14.1836C 30.3828 13.4336 30.1797 12.8555 29.7891 12.4492C 29.3984 12.0352 28.8438 11.8281 28.125 11.8281ZM 41.4961 22.2344C 39.6367 22.2344 38.1211 21.6641 36.9492 20.5234C 35.7852 19.3828 35.2031 17.8633 35.2031 15.9648L 35.2031 15.6367C 35.2031 14.3633 35.4492 13.2266 35.9414 12.2266C 36.4336 11.2188 37.1289 10.4453 38.0273 9.90625C 38.9336 9.35938 39.9648 9.08594 41.1211 9.08594C 42.8555 9.08594 44.2188 9.63281 45.2109 10.7266C 46.2109 11.8203 46.7109 13.3711 46.7109 15.3789L 46.7109 16.7617L 38.6367 16.7617C 38.7461 17.5898 39.0742 18.2539 39.6211 18.7539C 40.1758 19.2539 40.875 19.5039 41.7188 19.5039C 43.0234 19.5039 44.043 19.0312 44.7773 18.0859L 46.4414 19.9492C 45.9336 20.668 45.2461 21.2305 44.3789 21.6367C 43.5117 22.0352 42.5508 22.2344 41.4961 22.2344ZM 41.1094 11.8281C 40.4375 11.8281 39.8906 12.0547 39.4688 12.5078C 39.0547 12.9609 38.7891 13.6094 38.6719 14.4531L 43.3828 14.4531L 43.3828 14.1836C 43.3672 13.4336 43.1641 12.8555 42.7734 12.4492C 42.3828 12.0352 41.8281 11.8281 41.1094 11.8281ZM 52.2188 22L 48.8203 22L 48.8203 4L 52.2188 4L 52.2188 22ZM 62.3672 22C 62.2109 21.6953 62.0977 21.3164 62.0273 20.8633C 61.207 21.7773 60.1406 22.2344 58.8281 22.2344C 57.5859 22.2344 56.5547 21.875 55.7344 21.1562C 54.9219 20.4375 54.5156 19.5312 54.5156 18.4375C 54.5156 17.0938 55.0117 16.0625 56.0039 15.3438C 57.0039 14.625 58.4453 14.2617 60.3281 14.2539L 61.8867 14.2539L 61.8867 13.5273C 61.8867 12.9414 61.7344 12.4727 61.4297 12.1211C 61.1328 11.7695 60.6602 11.5938 60.0117 11.5938C 59.4414 11.5938 58.9922 11.7305 58.6641 12.0039C 58.3438 12.2773 58.1836 12.6523 58.1836 13.1289L 54.7969 13.1289C 54.7969 12.3945 55.0234 11.7148 55.4766 11.0898C 55.9297 10.4648 56.5703 9.97656 57.3984 9.625C 58.2266 9.26562 59.1562 9.08594 60.1875 9.08594C 61.75 9.08594 62.9883 9.48047 63.9023 10.2695C 64.8242 11.0508 65.2852 12.1523 65.2852 13.5742L 65.2852 19.0703C 65.293 20.2734 65.4609 21.1836 65.7891 21.8008L 65.7891 22L 62.3672 22ZM 59.5664 19.6445C 60.0664 19.6445 60.5273 19.5352 60.9492 19.3164C 61.3711 19.0898 61.6836 18.7891 61.8867 18.4141L 61.8867 16.2344L 60.6211 16.2344C 58.9258 16.2344 58.0234 16.8203 57.9141 17.9922L 57.9023 18.1914C 57.9023 18.6133 58.0508 18.9609 58.3477 19.2344C 58.6445 19.5078 59.0508 19.6445 59.5664 19.6445ZM 71.0039 9.32031L 71.1094 10.7852C 72.0156 9.65234 73.2305 9.08594 74.7539 9.08594C 76.0977 9.08594 77.0977 9.48047 77.7539 10.2695C 78.4102 11.0586 78.7461 12.2383 78.7617 13.8086L 78.7617 22L 75.375 22L 75.375 13.8906C 75.375 13.1719 75.2188 12.6523 74.9062 12.332C 74.5938 12.0039 74.0742 11.8398 73.3477 11.8398C 72.3945 11.8398 71.6797 12.2461 71.2031 13.0586L 71.2031 22L 67.8164 22L 67.8164 9.32031L 71.0039 9.32031ZM 86.6133 19.5039C 87.2383 19.5039 87.7461 19.332 88.1367 18.9883C 88.5273 18.6445 88.7305 18.1875 88.7461 17.6172L 91.9219 17.6172C 91.9141 18.4766 91.6797 19.2656 91.2188 19.9844C 90.7578 20.6953 90.125 21.25 89.3203 21.6484C 88.5234 22.0391 87.6406 22.2344 86.6719 22.2344C 84.8594 22.2344 83.4297 21.6602 82.3828 20.5117C 81.3359 19.3555 80.8125 17.7617 80.8125 15.7305L 80.8125 15.5078C 80.8125 13.5547 81.332 11.9961 82.3711 10.832C 83.4102 9.66797 84.8359 9.08594 86.6484 9.08594C 88.2344 9.08594 89.5039 9.53906 90.457 10.4453C 91.418 11.3438 91.9062 12.543 91.9219 14.043L 88.7461 14.043C 88.7305 13.3867 88.5273 12.8555 88.1367 12.4492C 87.7461 12.0352 87.2305 11.8281 86.5898 11.8281C 85.8008 11.8281 85.2031 12.1172 84.7969 12.6953C 84.3984 13.2656 84.1992 14.1953 84.1992 15.4844L 84.1992 15.8359C 84.1992 17.1406 84.3984 18.0781 84.7969 18.6484C 85.1953 19.2188 85.8008 19.5039 86.6133 19.5039ZM 99.6914 22.2344C 97.832 22.2344 96.3164 21.6641 95.1445 20.5234C 93.9805 19.3828 93.3984 17.8633 93.3984 15.9648L 93.3984 15.6367C 93.3984 14.3633 93.6445 13.2266 94.1367 12.2266C 94.6289 11.2188 95.3242 10.4453 96.2227 9.90625C 97.1289 9.35938 98.1602 9.08594 99.3164 9.08594C 101.051 9.08594 102.414 9.63281 103.406 10.7266C 104.406 11.8203 104.906 13.3711 104.906 15.3789L 104.906 16.7617L 96.832 16.7617C 96.9414 17.5898 97.2695 18.2539 97.8164 18.7539C 98.3711 19.2539 99.0703 19.5039 99.9141 19.5039C 101.219 19.5039 102.238 19.0312 102.973 18.0859L 104.637 19.9492C 104.129 20.668 103.441 21.2305 102.574 21.6367C 101.707 22.0352 100.746 22.2344 99.6914 22.2344ZM 99.3047 11.8281C 98.6328 11.8281 98.0859 12.0547 97.6641 12.5078C 97.25 12.9609 96.9844 13.6094 96.8672 14.4531L 101.578 14.4531L 101.578 14.1836C 101.562 13.4336 101.359 12.8555 100.969 12.4492C 100.578 12.0352 100.023 11.8281 99.3047 11.8281ZM 113.965 12.4961C 113.504 12.4336 113.098 12.4023 112.746 12.4023C 111.465 12.4023 110.625 12.8359 110.227 13.7031L 110.227 22L 106.84 22L 106.84 9.32031L 110.039 9.32031L 110.133 10.832C 110.812 9.66797 111.754 9.08594 112.957 9.08594C 113.332 9.08594 113.684 9.13672 114.012 9.23828L 113.965 12.4961Z"/>
</defs>
</svg>
